<svg id="visual" viewBox="0 0 1920 1080" width="1920" height="1080" xmlns="http://www.w3.org/2000/svg" xmlns:xlink="http://www.w3.org/1999/xlink" version="1.1"><rect x="0" y="0" width="1920" height="1080" fill="#001220"></rect><defs><linearGradient id="grad1_0" x1="43.8%" y1="0%" x2="100%" y2="100%"><stop offset="14.444444444444446%" stop-color="#001220" stop-opacity="1"></stop><stop offset="85.55555555555554%" stop-color="#001220" stop-opacity="1"></stop></linearGradient></defs><defs><linearGradient id="grad2_0" x1="0%" y1="0%" x2="56.3%" y2="100%"><stop offset="14.444444444444446%" stop-color="#001220" stop-opacity="1"></stop><stop offset="85.55555555555554%" stop-color="#001220" stop-opacity="1"></stop></linearGradient></defs><g transform="translate(1920, 0)"><path d="M0 972C-93.5 882.7 -186.9 793.3 -315.3 761.3C-443.7 729.2 -607.1 754.5 -687.3 687.3C-767.5 620.1 -764.6 460.6 -798.2 330.6C-831.8 200.7 -901.9 100.3 -972 0L0 0Z" fill="#004e87"></path></g><g transform="translate(0, 1080)"><path d="M0 -972C128.9 -936.8 257.7 -901.7 342.9 -827.8C428.1 -753.9 469.5 -641.3 567.8 -567.8C666.1 -494.3 821.2 -460.1 898 -372C974.8 -283.9 973.4 -141.9 972 0L0 0Z" fill="#004e87"></path></g></svg>